<svg id="Layer_1" data-name="Layer 1" xmlns="http://www.w3.org/2000/svg" viewBox="0 0 387.78 343.38"><title>new2</title><path d="M192.88,342.61S180.19,307.94,82.51,232.85c0,0-38.21-27.25-65.79-71.11,0,0-58.81-94.7,44.19-152.51,0,0,67.12-32.56,125.27,25.58,0,0,4.65,5,6.31,8.31,0,0,1.66,4.65,5.32-.66,0,0,40.2-60.81,121.61-36.88,0,0,102,30.57,56.82,147.2,0,0-19.27,39.87-71.77,80.41,0,0-72.1,53.83-106.33,106.66C198.14,339.84,196.59,345.38,192.88,342.61Z" transform="translate(0 0)" fill="rgba(137, 139, 138, 0.63)"/><path d="M284.59,329.25c-2.2,0-21.56-.65-23.79-23.3V260.57H212.05l-.33-.09c-.18-.05-18.24-5.4-18.72-25.11v-.17l0-.17c.85-7.76,6.72-22.44,22.8-22.44h.38s20.7,0,34.68,0h10V167.07c0-.27.64-22.44,23.75-23.57h.25c1.91,0,18.74.55,23,19.5l.06.27V212.6h47.79l.24,0c.2,0,19.54,4,19.54,24,0,.15.21,20.7-22.13,23.92l-.18,0H308V309.4l0,.17c0,.18-2.77,18.13-23,19.67h-.36Z" transform="translate(0 0)" fill="red"/><path d="M284.83,146c1.52,0,16.71.43,20.6,17.56V215.1h50.05S373,218.51,373,236.63c0,0,.42,18.5-20,21.44H305.49v51.16s-2.25,16.12-20.72,17.52h-.17c-1.93,0-19.29-.57-21.3-21V258.07H212.4s-16.46-4.67-16.9-22.77c0,0,2.23-20.21,20.32-20.21h.34s20.86,0,34.84,0c7,0,12.31,0,12.34,0v-48s.33-20,21.37-21.07h.12m0-5h-.37c-13.22.64-19.67,7.74-22.75,13.58a29.77,29.77,0,0,0-3.37,12.4v43.08H251c-13.65,0-33.85,0-34.82,0h-.37c-17.85,0-24.35,16.13-25.29,24.66l0,.33v.34A29.25,29.25,0,0,0,211,262.88l.67.19H258.3V306l0,.24c2,20.17,17.45,25.55,26.27,25.55h.55c17.78-1.35,24.32-14.86,25.29-21.81l0-.34V263.07h42.87l.35-.05c12.7-1.83,18.66-8.94,21.42-14.57A27.9,27.9,0,0,0,378,236.59c0-17.56-14.11-24.95-21.56-26.4l-.47-.09H310.43V163l-.12-.55C306.46,145.52,292.48,141,284.83,141Z" transform="translate(0 0)" fill="#fff"/><path d="M263.34,215.1v-48s.33-20,21.37-21.07c0,0,16.63-.48,20.72,17.55V215.1h50.05S373,218.51,373,236.63c0,0,.42,18.5-20,21.44H305.49v51.16s-2.25,16.12-20.72,17.52c0,0-19.34.64-21.47-21V258.07H212.4s-16.46-4.67-16.9-22.77c0,0,2.25-20.46,20.66-20.21C216.16,215.1,263.27,215,263.34,215.1Z" transform="translate(0 0)" fill="red"/></svg>